<?xml version="1.0" standalone="no"?>
<!DOCTYPE svg PUBLIC "-//W3C//DTD SVG 20010904//EN"
 "http://www.w3.org/TR/2001/REC-SVG-20010904/DTD/svg10.dtd">
<svg version="1.0" xmlns="http://www.w3.org/2000/svg"
 width="100.000000pt" height="100.000000pt" viewBox="0 0 100.000000 100.000000"
 preserveAspectRatio="xMidYMid meet">
<metadata>
Created by potrace 1.14, written by Peter Selinger 2001-2017
</metadata>
<g transform="translate(0.000000,100.000000) scale(0.100000,-0.100000)"
fill="#000000" stroke="none">
<path d="M325 676 c-162 -162 -295 -297 -295 -301 0 -3 25 -31 55 -61 52 -52
56 -55 87 -46 66 18 103 -15 95 -84 -5 -45 -3 -47 49 -101 48 -49 57 -53 72
-41 29 23 582 576 582 583 0 3 -26 32 -58 64 -49 49 -61 57 -75 46 -22 -16
-72 -7 -93 16 -18 20 -22 75 -5 92 6 6 -11 30 -49 68 -33 33 -62 59 -65 59 -3
0 -138 -132 -300 -294z"/>
</g>
</svg>
